<svg width="123" height="20" viewBox="0 0 123 20" fill="none" xmlns="http://www.w3.org/2000/svg">
<path d="M58.3097 15.0146L61.4999 13.0903L64.6902 15.0399L63.8547 11.3938L66.6651 8.96316L62.9685 8.63401L61.4999 5.19053L60.0314 8.60869L56.3347 8.93784L59.1452 11.3938L58.3097 15.0146ZM55.246 19.2429L56.8918 12.1281L51.3721 7.3427L58.6641 6.70971L61.4999 0L64.3357 6.70971L71.6278 7.3427L66.1081 12.1281L67.7539 19.2429L61.4999 15.4703L55.246 19.2429Z" fill="#6D2929"/>
<path d="M32.6241 15.0146L35.8144 13.0903L39.0047 15.0399L38.1691 11.3938L40.9796 8.96316L37.2829 8.63401L35.8144 5.19053L34.3458 8.60869L30.6492 8.93784L33.4597 11.3938L32.6241 15.0146ZM29.5604 19.2429L31.2062 12.1281L25.6865 7.3427L32.9786 6.70971L35.8144 0L38.6502 6.70971L45.9423 7.3427L40.4226 12.1281L42.0683 19.2429L35.8144 15.4703L29.5604 19.2429Z" fill="#6D2929"/>
<path d="M83.9962 15.0146L87.1865 13.0903L90.3767 15.0399L89.5412 11.3938L92.3517 8.96316L88.655 8.63401L87.1865 5.19053L85.7179 8.60869L82.0212 8.93784L84.8317 11.3938L83.9962 15.0146ZM80.9325 19.2429L82.5783 12.1281L77.0586 7.3427L84.3507 6.70971L87.1865 0L90.0223 6.70971L97.3143 7.3427L91.7946 12.1281L93.4404 19.2429L87.1865 15.4703L80.9325 19.2429Z" fill="#6D2929"/>
<path d="M6.93759 15.0146L10.1279 13.0903L13.3181 15.0399L12.4826 11.3938L15.2931 8.96316L11.5964 8.63401L10.1279 5.19053L8.65932 8.60869L4.96265 8.93784L7.77314 11.3938L6.93759 15.0146ZM3.87391 19.2429L5.51969 12.1281L0 7.3427L7.29206 6.70971L10.1279 0L12.9637 6.70971L20.2557 7.3427L14.736 12.1281L16.3818 19.2429L10.1279 15.4703L3.87391 19.2429Z" fill="#6D2929"/>
<path d="M109.682 15.0146L112.872 13.0903L116.062 15.0399L115.227 11.3938L118.037 8.96316L114.341 8.63401L112.872 5.19053L111.403 8.60869L107.707 8.93784L110.517 11.3938L109.682 15.0146ZM106.618 19.2429L108.264 12.1281L102.744 7.3427L110.036 6.70971L112.872 0L115.708 6.70971L123 7.3427L117.48 12.1281L119.126 19.2429L112.872 15.4703L106.618 19.2429Z" fill="#6D2929"/>
</svg>
