<?xml version="1.0" encoding="UTF-8"?>
<svg id="Layer_1" data-name="Layer 1" xmlns="http://www.w3.org/2000/svg" viewBox="0 0 52.42 45.21">
  <defs>
    <style>
      .cls-1 {
        fill: #fe755e;
        stroke-width: 0px;
      }
    </style>
  </defs>
  <path class="cls-1" d="m22.16,30.18c-.43.39-.97.75-1.64,1.1-1.42.73-3.17.78-4.92.14-2.33-.86-3.47-2.75-4.22-4.01-1.31-2.19-2.68-5.93-1.77-11.3.14-.86.35-1.7.61-2.53-.36.23-.69.47-.91.68-2.4,2.32-3.32,4.86-3.37,6.46-.06,1.88.79,4.99,1.66,6.92l3.56,7.97-5.21-7c-.9-1.21-2.58-4.24-3.26-7.23-.19-.82-.31-1.66-.37-2.5-1.66,2.54-3.38,7.61-1.53,12.65,1.08,2.93,3.43,5.29,3.69,5.55,1.36,1.33,2.93,2.41,4.68,3.2l5.69,2.57-6.2-.74c-1.6-.19-3.15-.62-4.61-1.27-.15-.07-.3-.14-.45-.21.64,1.16,1.54,2.39,2.81,3.36.81.61,1.61.87,2.38,1.11.14.04.27.08.4.13h13.85c.49-1.33,1.37-4.15,1.28-7.11-.1-3-.81-5.61-2.16-7.92Z"/>
  <path class="cls-1" d="m22.87,15.88c1.64,1.4,3.43,2.1,4.13,2.34.19.07.39.14.6.23-1.96-3.09-3.02-5.34-3.02-8.34,0-4.21,2.68-7.24,4.11-8.87.38-.43.78-.84,1.2-1.24-.9.26-1.81.61-2.73,1.04-1.32.61-3.27,1.66-4.94,3.7-.92,1.12-2.04,2.49-2.19,4.67-.11,1.6.2,3.05.91,4.31.02.02.05.05.07.07h0s.2.26.2.26c.43.56.92,1.2,1.66,1.82Z"/>
  <path class="cls-1" d="m36.17,40.21c.95-2.03,1.73-5.65.8-9.17-1.48-5.59-7.09-9.8-10.59-11-.66-.23-2.2-.83-3.78-1.95.92,2.86,1.72,6.52.96,9.63-.06.26-.13.49-.22.71,1.81,2.75,2.79,5.98,2.91,9.61.09,2.84-.62,5.54-1.16,7.17h6.78c.82-.58,2.06-1.51,3.16-3.02,0,0,.67-.94,1.16-1.98Z"/>
  <path class="cls-1" d="m49.73,21.36c-.68,2.99-2.36,6.02-3.25,7.23l-5.21,7.01,3.57-7.98c.86-1.93,1.72-5.04,1.66-6.92-.05-1.6-.96-4.13-3.37-6.46-.22-.21-.55-.45-.91-.68.26.83.47,1.68.61,2.53.91,5.37-.46,9.11-1.77,11.3-.48.81-1.18,1.97-2.29,2.89.02.08.05.16.07.24,1.06,4.02.17,8.15-.91,10.48-.56,1.21-1.31,2.24-1.34,2.29-.55.76-1.12,1.38-1.67,1.9h8.33c.13-.04.26-.08.4-.13.77-.24,1.57-.5,2.38-1.11,1.27-.97,2.17-2.2,2.81-3.36-.15.07-.3.14-.45.21-1.46.65-3.01,1.08-4.61,1.27l-6.19.74,5.69-2.57c1.75-.79,3.32-1.87,4.68-3.2.26-.26,2.61-2.62,3.69-5.55,1.85-5.04.13-10.11-1.53-12.65-.06.84-.18,1.68-.37,2.5Z"/>
</svg>