<svg width="40" height="40" viewBox="0 0 40 40" fill="none" xmlns="http://www.w3.org/2000/svg">
<g id="Group">
<path id="Vector" d="M17.5267 12.526L17.5263 12.5265L8.10175 21.951C7.77069 22.2727 7.50654 22.6568 7.32451 23.0811C7.14129 23.5082 7.04495 23.9675 7.04113 24.4322C7.03732 24.8969 7.12609 25.3578 7.30228 25.7878C7.47846 26.2179 7.73853 26.6085 8.06731 26.937C8.39609 27.2655 8.78699 27.5252 9.21721 27.701C9.64743 27.8767 10.1083 27.9651 10.5731 27.9608C11.0378 27.9566 11.497 27.8598 11.9239 27.6762C12.3479 27.4938 12.7316 27.2294 13.0529 26.8982L20.0001 19.951L26.9528 26.9022C27.2777 27.2273 27.6635 27.4852 28.0881 27.6612C28.5128 27.8372 28.9679 27.9278 29.4276 27.928C29.8872 27.9281 30.3424 27.8376 30.7671 27.6618C31.1918 27.486 31.5777 27.2283 31.9028 26.9033C32.2279 26.5784 32.4858 26.1926 32.6618 25.768C32.8378 25.3434 32.9285 24.8882 32.9286 24.4286C32.9287 23.9689 32.8383 23.5137 32.6625 23.089C32.4867 22.6643 32.2289 22.2784 31.904 21.9533L31.9037 21.953L22.4737 12.5263L22.4734 12.526C21.8171 11.8706 20.9275 11.5024 20 11.5024C19.0725 11.5024 18.183 11.8706 17.5267 12.526Z" fill="#FDED52" stroke="#4F296B" stroke-width="2"/>
</g>
</svg>
