<svg width="192" height="36" viewBox="0 0 192 36" fill="none" xmlns="http://www.w3.org/2000/svg">
<path fill-rule="evenodd" clip-rule="evenodd" d="M32.3715 30.842C32.3601 31.1484 32.3479 31.4571 32.3349 31.7679L32.284 32.9841L33.3408 33.588C34.5955 34.305 36.2228 34.5716 37.6531 34.5716C38.8594 34.5716 40.243 34.406 41.3974 33.9647C42.3931 33.5839 44.1487 32.5958 44.0925 30.5198C44.0653 29.4712 44.0344 28.4286 44.0036 27.3905C43.9463 25.4588 43.8894 23.5427 43.8585 21.6322L43.8637 21.6357C45.1774 22.5114 46.719 22.6916 47.7731 22.6916C49.6724 22.6916 51.3187 22.0078 52.466 20.7012C53.3141 19.7353 53.7898 18.544 53.9693 17.2916H53.3962C53.157 17.1776 52.9989 16.7068 52.9339 16.0916C52.8339 15.1453 52.9543 13.8574 53.3387 13.0015C53.0816 12.496 52.7454 12.0087 52.3156 11.5611C50.9988 10.1901 49.0529 9.45155 46.5731 9.45155C44.6202 9.45155 43.1133 9.94979 41.9161 10.3591L41.875 10.3732C40.6614 10.7881 39.8909 11.0516 38.9731 11.0516C37.8263 11.0516 35.9383 10.6358 34.8948 10.1792L31.7469 8.80206L32.1039 12.2194C32.3543 14.6153 32.6861 21.3375 32.4021 29.968C32.669 30.1006 32.948 30.1716 33.24 30.1716C32.9514 30.4196 32.6612 30.6422 32.3715 30.842ZM41.8531 16.6516C42.4131 15.6916 43.3331 15.3316 44.0531 15.3316C45.8531 15.3316 45.6131 18.3716 44.9731 19.9716C45.4185 20.2685 45.9313 20.4529 46.4461 20.5607C46.5851 20.5899 46.7243 20.6134 46.8624 20.632C47.1771 20.6745 47.4858 20.6916 47.7731 20.6916C50.5731 20.6916 52.0531 18.7316 52.0531 16.0916C52.0531 13.8916 50.7331 11.4516 46.5731 11.4516C44.8962 11.4516 43.6148 11.8909 42.3949 12.3092C41.2869 12.6891 40.2297 13.0516 38.9731 13.0516C38.1679 13.0516 37.1376 12.9015 36.1619 12.6712C35.3927 12.4897 34.6574 12.2584 34.0931 12.0116C34.1497 12.5529 34.2095 13.295 34.2657 14.2134C34.4875 17.8419 34.6523 24.2226 34.3331 31.8516C35.1731 32.3316 36.4131 32.5716 37.6531 32.5716C39.7731 32.5716 42.1331 31.9716 42.0931 30.5716C42.0665 29.5404 42.0358 28.5093 42.0052 27.4782C41.8981 23.8693 41.7909 20.2604 41.8531 16.6516Z" fill="#232845"/>
<path d="M34.3331 31.8516C35.1731 32.3316 36.4131 32.5716 37.6531 32.5716C39.7731 32.5716 42.1331 31.9716 42.0931 30.5716C41.9731 25.9316 41.7731 21.2916 41.8531 16.6516C42.4131 15.6916 43.3331 15.3316 44.0531 15.3316C45.8531 15.3316 45.6131 18.3716 44.9731 19.9716C45.8131 20.5316 46.8931 20.6916 47.7731 20.6916C50.5731 20.6916 52.0531 18.7316 52.0531 16.0916C52.0531 13.8916 50.7331 11.4516 46.5731 11.4516C43.3731 11.4516 41.6131 13.0516 38.9731 13.0516C37.5331 13.0516 35.3731 12.5716 34.0931 12.0116C34.3731 14.6916 34.7331 22.2916 34.3331 31.8516Z" fill="#FDED52"/>
<path fill-rule="evenodd" clip-rule="evenodd" d="M0.381271 30.048L1.73493 28.9425C2.63728 28.2056 3.5051 27.1031 4.58665 25.0014C5.67686 22.8829 6.91264 19.8953 8.6144 15.4908L8.61541 15.4881C10.0227 11.8608 10.7333 9.43515 10.9699 7.77017C11.2038 6.12416 10.9314 5.52987 10.7376 5.26115L9.09282 2.97962L11.7879 2.17511C14.8481 1.26162 18.4493 1.39566 20.5851 1.90639L20.5949 1.90873C21.7318 2.18664 22.7665 2.6503 23.6869 3.42265C24.5939 4.18379 25.2868 5.15851 25.8725 6.30957C27.0017 8.52874 27.9126 11.7937 29.0958 16.3488L29.0964 16.3513C29.2619 16.9917 29.4289 17.6728 29.6013 18.3755C30.1075 20.4393 30.6596 22.69 31.3507 24.645C31.8125 25.9514 32.2822 26.9584 32.7427 27.604C33.0415 28.023 33.2256 28.1424 33.2847 28.1716H34.4538C34.4285 29.237 34.394 30.3355 34.349 31.4621C34.3439 31.5915 34.3386 31.7214 34.3331 31.8516C34.3364 31.8534 34.3397 31.8553 34.343 31.8572C31.3204 34.348 28.1768 34.5716 26.56 34.5716C24.0413 34.5716 22.0438 33.9684 20.5577 32.5274C19.4373 31.4409 18.7838 30.0358 18.3146 28.5921C17.6121 29.0161 16.8075 29.2516 15.92 29.2516C15.5108 29.2516 15.1075 29.2055 14.7143 29.1166C14.1376 30.4257 13.4412 31.5705 12.5495 32.4754C11.1258 33.9202 9.34678 34.6116 7.24 34.6116C5.34804 34.6116 2.89551 34.1452 1.29535 31.5376L0.381271 30.048ZM12.8701 28.3413C13.1284 27.7585 13.3699 27.1154 13.6 26.4116C14.1758 26.8594 14.8027 27.1281 15.4399 27.2178C15.5995 27.2403 15.7597 27.2516 15.92 27.2516C16.5587 27.2516 17.1886 27.0222 17.735 26.5386C18.3522 25.9924 18.863 25.122 19.16 23.8916C19.1752 23.9569 19.1904 24.0218 19.2054 24.0862C19.4661 25.2043 19.6931 26.1773 19.92 26.9716C19.9261 26.994 19.9323 27.0165 19.9384 27.0388C20.8965 30.518 22.1881 32.5716 26.56 32.5716C27.6084 32.5716 29.3141 32.4655 31.1522 31.5589C31.8388 31.2202 32.5438 30.7698 33.24 30.1716C32.548 30.1716 31.929 29.7732 31.3712 29.1001C29.6669 27.0438 28.5341 22.4238 27.6382 18.7701C27.4713 18.0894 27.3126 17.4423 27.16 16.8516C24.76 7.61155 23.72 4.73155 20.12 3.85155C18.7363 3.52066 16.5608 3.37074 14.4271 3.65698C13.7236 3.75137 13.0246 3.89317 12.36 4.09155C12.7164 4.58589 12.9472 5.19257 13.0278 5.97997C13.2276 7.93222 12.5038 10.9954 10.48 16.2116C7.08 25.0115 5.4 28.5316 3 30.4916C3.24811 30.8959 3.52368 31.2263 3.81989 31.4955C4.0048 31.6635 4.19775 31.8077 4.3971 31.931C5.26849 32.4701 6.2621 32.6116 7.24 32.6116C9.93184 32.6116 11.6021 31.2034 12.8701 28.3413ZM18.6 21.3716C18.4736 20.7395 18.3424 20.079 18.2083 19.393C18.106 18.87 18.002 18.3323 17.897 17.7809C17.5732 16.0808 17.2401 14.2519 16.92 12.3316C16.5995 14.2086 16.2397 16.0202 15.8557 17.7513C15.725 18.3401 15.5916 18.9196 15.4559 19.4892C15.2934 20.1712 15.1278 20.839 14.96 21.4916C15.4901 21.4916 16.0357 21.4837 16.5798 21.4681C16.7313 21.4638 16.8827 21.4588 17.0336 21.4533C17.5674 21.4336 18.0951 21.4064 18.6 21.3716Z" fill="#232845"/>
<path d="M7.24 32.5916C5.68 32.5916 4.08 32.2316 3 30.4716C5.4 28.5116 7.08 24.9916 10.48 16.1916C13.32 8.87155 13.6 5.79155 12.36 4.07155C15.04 3.27155 18.28 3.39155 20.12 3.83155C23.72 4.71155 24.76 7.59155 27.16 16.8316C28.4 21.6316 30.04 30.1516 33.24 30.1516C30.68 32.3516 28 32.5516 26.56 32.5516C22.16 32.5516 20.88 30.4716 19.92 26.9516C19.68 26.1116 19.44 25.0716 19.16 23.8716C18.6 26.1916 17.28 27.2316 15.92 27.2316C15.12 27.2316 14.32 26.9516 13.6 26.3916C12.24 30.5516 10.48 32.5916 7.24 32.5916ZM14.96 21.4715C16.16 21.4715 17.44 21.4316 18.6 21.3516C18.08 18.7516 17.48 15.6716 16.92 12.3116C16.36 15.5916 15.68 18.6716 14.96 21.4715Z" fill="#FDED52"/>
<path fill-rule="evenodd" clip-rule="evenodd" d="M51.6233 18.3307C51.8238 18.6051 52.1161 18.8971 52.5364 19.0973L52.9444 19.2916H53.8406C53.8614 20.236 53.8762 21.0131 53.8762 21.6116V25.2516C53.8762 27.2527 54.0297 29.4991 54.9392 31.2844C55.4194 32.227 56.126 33.0759 57.1374 33.6731C58.141 34.2657 59.3106 34.5316 60.5962 34.5316C62.2192 34.5316 65.9238 34.1671 68.2408 31.2574L70.7255 28.1371L66.7387 28.0125C66.5418 28.0064 66.4978 27.9642 66.4563 27.9244L66.4551 27.9232C66.3615 27.8335 66.1564 27.5664 65.9502 26.8862C65.5255 25.4854 65.3162 23.1158 65.3162 19.3716V19.2916H65.4762C67.0127 19.2916 67.8643 18.1659 68.2324 17.4607C68.6268 16.7051 68.8205 15.8256 68.9079 15.072C68.9975 14.2999 68.9956 13.4816 68.888 12.7725C68.835 12.4237 68.7448 12.0223 68.5813 11.6413C68.5458 11.5584 68.4952 11.4488 68.4254 11.3257C68.3073 11.4447 68.1964 11.5667 68.0931 11.6916C68.122 11.4553 68.1601 11.2236 68.2072 10.9965C68.0086 10.7389 67.728 10.4725 67.3361 10.2858L66.9281 10.0916H65.4075C65.4454 8.99202 65.4932 8.1088 65.5424 7.20226C65.546 7.13484 65.5497 7.06728 65.5533 6.9995L65.6409 5.37944L64.0737 4.95966C62.4906 4.53561 60.0419 4.66145 57.9717 5.51141C56.1613 6.25469 54.3057 7.72541 53.8052 10.1505C52.6365 10.3908 51.958 11.3134 51.6401 11.9224C51.4189 12.3462 51.2609 12.8089 51.1493 13.2665C51.7955 14.101 52.0531 15.1197 52.0531 16.0916C52.0531 16.9176 51.9082 17.677 51.6233 18.3307ZM55.6762 11.3412C55.6738 11.4298 55.6738 11.5199 55.6762 11.6116V12.0916H54.3962C52.7162 12.0916 52.5562 16.8916 53.3962 17.2916L55.7962 17.2916C55.805 17.6952 55.8138 18.0815 55.8221 18.4493C55.8519 19.7578 55.8762 20.8309 55.8762 21.6116V25.2516C55.8762 29.2116 56.5562 32.5316 60.5962 32.5316C61.6067 32.5316 63.2698 32.3637 64.7707 31.5698C65.4682 31.2009 66.1306 30.6968 66.6762 30.0116C65.9073 29.9875 65.2971 29.6928 64.8198 29.0895C63.7078 27.6843 63.3162 24.6048 63.3162 19.3716V17.2916H65.4762C67.1562 17.2916 67.3163 12.4916 66.4762 12.0916H63.3562C63.3692 11.3396 63.3864 10.6843 63.4064 10.0916C63.4453 8.9397 63.4949 8.02427 63.5452 7.09534L63.5562 6.89155C61.3625 6.30393 55.7925 7.13587 55.6762 11.3412Z" fill="#232845"/>
<path d="M60.5962 32.5354C56.5562 32.5354 55.8762 29.2154 55.8762 25.2554V21.6154C55.8762 20.6154 55.8362 19.1354 55.7962 17.2954H53.3962C52.5562 16.8954 52.7162 12.0954 54.3962 12.0954H55.6762V11.6154C55.5562 7.17543 61.3163 6.29543 63.5563 6.89543C63.4763 8.37543 63.3962 9.77543 63.3562 12.0954H66.4762C67.3162 12.4954 67.1562 17.2954 65.4762 17.2954H63.3162V19.3754C63.3162 26.8554 64.1162 29.9354 66.6762 30.0154C64.9562 32.1754 62.0762 32.5354 60.5962 32.5354Z" fill="#FDED52"/>
<path fill-rule="evenodd" clip-rule="evenodd" d="M68.8972 36.0056L68.9737 32.6855C69.2314 21.4913 69.1491 18.4485 69.0096 13.7217L65.2793 18.2327L65.3943 17.2916H65.4762C67.1562 17.2916 67.3163 12.4916 66.4762 12.0916H66.0294L66.1079 11.4491C66.9349 4.67808 73.5637 1.45155 80.8531 1.45155C86.0584 1.45155 90.4452 2.85797 93.5387 5.80953C96.6465 8.77469 98.1731 13.0356 98.1731 18.1716C98.1731 18.4601 98.168 18.7464 98.1579 19.0303C97.9096 19.9883 97.7844 21.0025 97.7844 22.0516C97.7844 22.1523 97.7855 22.2527 97.7878 22.3528C97.1924 25.4432 95.9139 28.1409 94.0023 30.2572C91.252 33.3019 87.3427 34.9716 82.7731 34.9716C80.9388 34.9716 79.3112 34.6648 77.9617 34.3919C77.8544 34.3702 77.7498 34.3489 77.6476 34.3282C76.3869 34.0722 75.4974 33.8916 74.6931 33.8916C73.4765 33.8916 72.7035 34.1024 71.8676 34.5204L68.8972 36.0056ZM70.8113 9.71421C72.1797 9.0734 73.817 8.63939 75.5147 8.46143C76.1427 8.3956 76.7791 8.36481 77.4131 8.37155C84.0531 8.41155 86.8531 12.0516 86.8531 18.6516C86.8531 23.6313 84.8693 27.3988 81.8392 28.8333C81.2184 29.1272 80.5537 29.3231 79.8531 29.4116C79.843 28.9856 79.8296 28.5038 79.8148 27.9706C79.8097 27.7858 79.8044 27.5948 79.799 27.3978C79.6973 23.6812 79.5614 17.839 79.8931 11.1716C78.9331 10.6916 77.4931 10.4516 76.0931 10.4516C75.9473 10.4516 75.8004 10.4537 75.6532 10.458C73.8021 10.5125 71.8954 10.9127 71.2244 11.7437C71.0561 11.9521 70.9656 12.1876 70.9731 12.4516C70.9833 12.8016 70.9933 13.1399 71.003 13.4696C71.137 18.0092 71.2231 20.9264 71.0218 30.5252C71.0071 31.2241 70.9909 31.9585 70.9731 32.7316C71.627 32.4046 72.2673 32.1731 72.9894 32.037C73.5042 31.9401 74.0605 31.8916 74.6931 31.8916C75.7101 31.8916 76.8012 32.1142 77.9928 32.3572C79.4258 32.6496 81.0041 32.9716 82.7731 32.9716C90.8931 32.9716 96.1731 27.0916 96.1731 18.1716C96.1731 8.69155 90.5731 3.45155 80.8531 3.45155C75.6642 3.45155 71.4425 5.13832 69.3851 8.19145C68.6987 9.21004 68.2532 10.3807 68.0931 11.6916C68.5735 11.1106 69.2192 10.5921 69.9824 10.1473C70.2454 9.99403 70.5224 9.84951 70.8113 9.71421ZM81.8861 11.3636C81.5867 17.4545 81.6809 22.837 81.7767 26.532C83.518 25.2471 84.8531 22.6257 84.8531 18.6516C84.8531 15.5862 84.1959 13.5945 83.1212 12.3722C82.7879 11.9932 82.3823 11.6522 81.8861 11.3636Z" fill="#232845"/>
<path d="M82.7708 32.9716C79.5308 32.9716 76.9308 31.8916 74.6908 31.8916C73.1708 31.8916 72.0908 32.1716 70.9708 32.7316C71.2508 20.5716 71.1308 17.9716 70.9708 12.4516C70.9308 11.0516 73.6508 10.4516 76.0908 10.4516C77.4908 10.4516 78.9308 10.6916 79.8908 11.1716C79.4908 19.2116 79.7708 26.0516 79.8508 29.4116C83.9708 28.8916 86.8508 24.6516 86.8508 18.6516C86.8508 12.0516 84.0508 8.41156 77.4108 8.37155C73.6508 8.33155 69.8108 9.61155 68.0908 11.6916C68.7308 6.45155 73.9308 3.45155 80.8508 3.45155C90.5708 3.45155 96.1708 8.69155 96.1708 18.1716C96.1708 27.0916 90.8908 32.9716 82.7708 32.9716Z" fill="#FDED52"/>
<path fill-rule="evenodd" clip-rule="evenodd" d="M95.7849 22.1728C95.8117 25.5333 96.9556 28.6797 99.2149 31.0052C101.514 33.3722 104.817 34.7316 108.824 34.7316C111.323 34.7316 113.815 34.2199 115.929 32.8187C118.078 31.3946 119.645 29.1779 120.474 26.1378L121.271 23.2158C121.276 22.7198 121.281 22.2212 121.285 21.7242L117.546 23.8787C116.784 24.3179 116.048 24.6172 115.343 24.819C115.619 24.6824 115.885 24.5368 116.14 24.3827C118.6 22.8939 120.024 20.589 120.024 17.9716C120.024 17.7461 120.014 17.5191 119.992 17.2916H119.412C118.956 17.0745 118.795 15.5614 119.011 14.223C118.574 13.4583 117.993 12.7364 117.261 12.0964C115.38 10.4503 112.636 9.45155 109.064 9.45155C104.921 9.45155 101.556 10.7955 99.2259 13.1566C97.6842 14.7186 96.6713 16.6489 96.1655 18.7555C96.1351 19.9099 96.0145 21.0107 95.8092 22.0516C95.8012 22.0921 95.7931 22.1325 95.7849 22.1728ZM108.191 26.3066C107.327 25.8029 106.712 25.1046 106.304 24.2516C107.183 24.3098 108.012 24.3219 108.792 24.2922C114.965 24.0571 118.024 21.2036 118.024 17.9716C118.024 15.0116 115.464 11.4516 109.064 11.4516C101.664 11.4516 97.7844 16.2116 97.7844 22.0516C97.7844 27.9716 101.744 32.7316 108.824 32.7316C112.423 32.7316 115.584 31.544 117.434 28.3394C117.887 27.555 118.261 26.6498 118.544 25.6116C117.677 26.1114 116.837 26.46 116.033 26.701C114.651 27.1156 113.377 27.2116 112.264 27.2116C110.527 27.2116 109.191 26.8893 108.191 26.3066ZM105.624 21.4116C105.584 21.0916 105.584 20.7316 105.584 20.4116C105.584 20.1688 105.59 19.9294 105.601 19.6942C105.605 19.5992 105.61 19.505 105.616 19.4114C105.797 16.6454 106.742 14.5316 108.424 14.5316C109.744 14.5316 110.384 15.8516 110.384 17.2916C110.384 19.1747 109.334 20.5218 107.602 21.0991C107.475 21.1412 107.345 21.1793 107.211 21.2132C106.726 21.3361 106.195 21.4036 105.624 21.4116ZM107.678 18.8457C107.716 18.818 107.751 18.79 107.784 18.7617C108.135 18.4616 108.384 18.0145 108.384 17.2916C108.384 17.0762 108.36 16.8861 108.322 16.7326C108.321 16.7265 108.319 16.7205 108.318 16.7147C108.261 16.7995 108.195 16.9155 108.126 17.0712C107.931 17.5075 107.773 18.1099 107.678 18.8457Z" fill="#232845"/>
<path d="M108.824 32.7316C101.744 32.7316 97.7844 27.9716 97.7844 22.0516C97.7844 16.2116 101.664 11.4516 109.064 11.4516C115.464 11.4516 118.024 15.0116 118.024 17.9716C118.024 21.6116 114.144 24.7716 106.304 24.2516C107.184 26.0916 109.024 27.2116 112.264 27.2116C114.024 27.2116 116.184 26.9716 118.544 25.6116C117.104 30.8916 113.304 32.7316 108.824 32.7316ZM105.584 20.4116C105.584 20.7316 105.584 21.0916 105.624 21.4116C108.504 21.3716 110.384 19.8116 110.384 17.2916C110.384 15.8516 109.744 14.5316 108.424 14.5316C106.544 14.5316 105.584 17.1716 105.584 20.4116Z" fill="#FDED52"/>
<path fill-rule="evenodd" clip-rule="evenodd" d="M118.993 32.9786L119.054 31.7517C119.172 29.3982 119.292 24.2433 119.292 19.7084L119.285 19.2916H118.96L118.552 19.0973C118.322 18.9877 118.13 18.8506 117.971 18.7039C118.007 18.4627 118.024 18.2182 118.024 17.9716C118.024 16.8932 117.685 15.7352 116.943 14.6988C116.953 14.5687 116.965 14.4393 116.98 14.3111C117.068 13.5575 117.261 12.678 117.656 11.9224C117.905 11.4447 118.376 10.7741 119.132 10.3911V9.93155C119.132 7.67001 119.664 5.39052 120.966 3.62119C122.324 1.77546 124.407 0.65155 127.052 0.65155C128.778 0.65155 130.596 1.10542 132.042 2.25678C132.365 2.51317 132.659 2.79729 132.925 3.10773C133.173 2.79194 133.457 2.50344 133.775 2.24521C135.021 1.23084 136.615 0.81155 138.172 0.81155C139.729 0.81155 141.322 1.23084 142.569 2.24521C143.868 3.30188 144.612 4.86532 144.612 6.73155C144.612 8.59778 143.868 10.1612 142.569 11.2179C142.507 11.2684 142.444 11.3175 142.38 11.3651C142.432 11.4178 142.482 11.4719 142.532 11.5275C143.811 12.9557 144.179 14.9397 144.09 17.1323L144.09 17.1384C144.038 18.3405 144.021 19.502 144.003 20.7016C143.994 21.3124 143.985 21.9331 143.971 22.5741C143.93 24.7897 143.91 26.4531 144.086 27.6758C144.173 28.2725 144.29 28.6314 144.395 28.8356C144.444 28.9294 144.481 28.9732 144.497 28.9901C144.511 29.0041 144.519 29.0093 144.53 29.0148L145.775 29.6235C145.759 30.2201 145.739 30.8249 145.716 31.4365L145.21 32.0656C143.291 34.4495 140.269 34.7316 138.932 34.7316C137.02 34.7316 135.15 34.2046 133.856 32.6038C132.638 31.096 132.249 29.0114 132.292 26.6553C132.301 26.1401 132.31 25.6458 132.318 25.1711C132.364 22.5784 132.399 20.5743 132.378 18.9887C132.017 19.173 131.591 19.2916 131.092 19.2916H130.631C130.675 23.4129 130.743 27.8938 130.811 30.5196C130.868 32.5957 129.112 33.5839 128.116 33.9647C126.962 34.406 125.578 34.5716 124.372 34.5716C122.942 34.5716 121.314 34.305 120.06 33.588L118.993 32.9786ZM128.631 19.2916C128.624 18.6115 128.618 17.9416 128.612 17.2916H131.092C131.614 17.2916 131.989 16.8287 132.233 16.1785C132.601 15.198 132.671 13.7915 132.497 12.9034C132.415 12.4839 132.278 12.18 132.092 12.0916H128.572V11.4116C128.572 10.9271 128.592 10.4877 128.633 10.0916C128.82 8.28054 129.436 7.3731 130.497 7.20174C130.623 7.18152 130.754 7.17155 130.892 7.17155C131.201 7.17155 131.493 7.21277 131.754 7.27649C132.067 7.35314 132.335 7.46235 132.532 7.57155C132.522 7.27731 132.493 6.99741 132.449 6.73155C132.358 6.19013 132.199 5.70693 131.983 5.27943C131.963 5.23987 131.943 5.2008 131.922 5.1622C130.981 3.42767 129.08 2.65155 127.052 2.65155C123.012 2.65155 121.132 5.97155 121.132 9.93155V12.0916H120.412C118.732 12.0916 118.572 16.8916 119.412 17.2916L121.252 17.2916L121.292 19.6916C121.292 24.2516 121.172 29.4516 121.052 31.8516C121.892 32.3316 123.132 32.5716 124.372 32.5716C126.492 32.5716 128.852 31.9716 128.812 30.5716C128.743 27.9268 128.674 23.4239 128.631 19.2916ZM132.602 9.89871L131.561 9.31987C131.535 9.30558 131.449 9.26448 131.314 9.22845C131.184 9.19354 131.038 9.17155 130.892 9.17155C130.89 9.17155 130.887 9.17156 130.885 9.17158C130.808 9.3169 130.712 9.60106 130.647 10.0916H132.544L132.826 10.2259C132.748 10.1197 132.673 10.0106 132.602 9.89871ZM133.883 14.2562C133.651 13.5215 133.319 12.9773 132.852 12.5316C133.343 12.2917 133.837 12.1105 134.321 11.975C134.468 11.934 134.613 11.8971 134.758 11.8641C134.802 11.8539 134.847 11.844 134.891 11.8345C135.887 11.6213 136.811 11.5875 137.532 11.6116C137.753 11.6144 137.966 11.6242 138.172 11.6415C139.075 11.7174 139.83 11.9366 140.429 12.3328C141.617 13.1196 142.191 14.6044 142.092 17.0516C142.038 18.2813 142.021 19.4932 142.003 20.7111C141.994 21.3155 141.985 21.9213 141.972 22.5316C141.905 26.1599 141.866 28.9135 142.921 30.2236C143.123 30.4734 143.364 30.6707 143.652 30.8116C143.178 31.3999 142.591 31.8133 141.978 32.1014C140.882 32.6164 139.701 32.7316 138.932 32.7316C135.812 32.7316 134.212 31.0516 134.292 26.6916C134.301 26.1681 134.31 25.6643 134.318 25.1792C134.391 21.0862 134.439 18.3279 134.265 16.394C134.188 15.533 134.066 14.8355 133.883 14.2562ZM137.545 10.6215C137.551 10.6221 137.558 10.6228 137.565 10.6234C137.763 10.6422 137.966 10.6516 138.172 10.6516C139.044 10.6516 139.859 10.483 140.548 10.1477C141.786 9.54477 142.612 8.4025 142.612 6.73155C142.612 4.13155 140.612 2.81155 138.172 2.81155C136.326 2.81155 134.733 3.5666 134.066 5.05938C133.851 5.54037 133.732 6.09796 133.732 6.73155C133.732 7.01169 133.755 7.27696 133.8 7.52733C133.92 8.20589 134.197 8.77494 134.591 9.23347C134.757 9.42674 134.944 9.60038 135.149 9.75431C135.798 10.242 136.628 10.5318 137.545 10.6215Z" fill="#232845"/>
<path d="M124.372 32.5716C123.132 32.5716 121.892 32.3316 121.052 31.8516C121.172 29.4516 121.292 24.2516 121.292 19.6916L121.252 17.2916L119.412 17.2916C118.572 16.8916 118.732 12.0916 120.412 12.0916H121.132V9.93155C121.132 5.97155 123.012 2.65155 127.052 2.65155C129.852 2.65155 132.412 4.13155 132.532 7.57155C132.172 7.37155 131.572 7.17155 130.892 7.17155C129.332 7.17155 128.572 8.45155 128.572 11.4116V12.0916H132.092C132.932 12.4916 132.772 17.2916 131.092 17.2916H128.612C128.652 21.8916 128.732 27.4916 128.812 30.5716C128.852 31.9716 126.492 32.5716 124.372 32.5716ZM132.852 12.5316C134.572 11.6916 136.332 11.5716 137.532 11.6116C140.652 11.6516 142.252 13.0916 142.092 17.0516C142.012 18.8916 142.012 20.6916 141.972 22.5316C141.892 26.8516 141.852 29.9316 143.652 30.8116C142.332 32.4516 140.132 32.7316 138.932 32.7316C135.812 32.7316 134.212 31.0516 134.292 26.6916C134.452 17.2916 134.612 14.2116 132.852 12.5316ZM133.732 6.73155C133.732 4.13155 135.732 2.81155 138.172 2.81155C140.612 2.81155 142.612 4.13155 142.612 6.73155C142.612 9.33155 140.612 10.6516 138.172 10.6516C135.732 10.6516 133.732 9.33155 133.732 6.73155Z" fill="#FDED52"/>
<path fill-rule="evenodd" clip-rule="evenodd" d="M158.18 27.0916C158.18 31.0516 159.66 32.7316 162.78 32.7316C163.547 32.7316 164.704 32.6174 165.785 32.1079C166.396 31.8194 166.983 31.4043 167.46 30.8116C167.148 30.6623 166.889 30.4497 166.674 30.1785C165.62 28.851 165.62 26.1188 165.62 22.5316C165.62 16.1716 164.34 11.4516 157.58 11.4516C155.925 11.4516 154.596 11.7674 153.279 12.0802C151.986 12.3873 150.706 12.6916 149.14 12.6916C148.671 12.6916 148.114 12.6652 147.523 12.5794C146.853 12.4822 146.14 12.3089 145.46 12.0116C145.519 12.5546 145.578 13.2927 145.632 14.2033C145.761 16.3782 145.86 19.537 145.86 23.3716C145.86 25.9316 145.82 28.8116 145.7 31.8516C146.54 32.3316 147.78 32.5716 149.02 32.5716C151.14 32.5716 153.5 31.9716 153.46 30.5716C153.429 29.2762 153.389 28.0054 153.35 26.7464C153.239 23.1843 153.132 19.7162 153.22 16.0516C157.34 14.8116 158.18 17.1716 158.18 22.3716V27.0916ZM155.193 17.7295C155.257 17.7329 155.309 17.7397 155.351 17.7478C155.466 17.7702 155.505 17.7914 155.582 17.9077C155.711 18.1006 155.884 18.5139 156.008 19.3191C156.128 20.1046 156.18 21.11 156.18 22.3716V27.0916C156.18 29.2521 156.571 31.229 157.772 32.6744C159.043 34.2047 160.867 34.7316 162.78 34.7316C164.13 34.7316 167.104 34.4441 169.018 32.0656L170.602 30.0974L168.323 29.0073L168.321 29.0064C168.304 28.9986 168.247 28.9724 168.157 28.805C168.045 28.5978 167.921 28.2377 167.825 27.6418C167.626 26.4172 167.62 24.7541 167.62 22.5316C167.62 19.318 167.318 16.0663 165.858 13.5904C164.258 10.8784 161.507 9.45155 157.58 9.45155C155.691 9.45155 154.172 9.81238 152.872 10.1211L152.853 10.1257C151.534 10.4391 150.456 10.6916 149.14 10.6916C148.264 10.6916 147.179 10.5806 146.262 10.1792L143.099 8.79543L143.472 12.2277C143.66 13.961 143.86 17.9571 143.86 23.3716C143.86 25.9112 143.821 28.7643 143.702 31.7727L143.654 32.9857L144.708 33.588C145.963 34.305 147.59 34.5716 149.02 34.5716C150.227 34.5716 151.61 34.406 152.765 33.9647C153.76 33.5839 155.516 32.5955 155.46 30.5191C155.428 29.1947 155.388 27.9071 155.348 26.6393C155.255 23.6331 155.165 20.7385 155.193 17.7295Z" fill="#232845"/>
<path d="M162.78 32.7316C159.66 32.7316 158.18 31.0516 158.18 27.0916V22.3716C158.18 17.1716 157.34 14.8116 153.22 16.0516C153.1 21.0116 153.34 25.6116 153.46 30.5716C153.5 31.9716 151.14 32.5716 149.02 32.5716C147.78 32.5716 146.54 32.3316 145.7 31.8516C145.82 28.8116 145.86 25.9316 145.86 23.3716C145.86 17.9316 145.66 13.8516 145.46 12.0116C146.74 12.5716 148.14 12.6916 149.14 12.6916C152.3 12.6916 154.3 11.4516 157.58 11.4516C164.34 11.4516 165.62 16.1716 165.62 22.5316C165.62 26.8516 165.62 29.9316 167.46 30.8116C166.14 32.4516 163.98 32.7316 162.78 32.7316Z" fill="#FDED52"/>
<path fill-rule="evenodd" clip-rule="evenodd" d="M167.628 22.0516C167.628 27.9716 171.588 32.7316 178.668 32.7316C182.267 32.7316 185.427 31.544 187.278 28.3394C187.731 27.555 188.105 26.6498 188.388 25.6116C187.521 26.1114 186.68 26.46 185.877 26.701C184.494 27.1156 183.221 27.2116 182.108 27.2116C180.37 27.2116 179.035 26.8893 178.035 26.3066C177.17 25.8029 176.556 25.1046 176.148 24.2516C177.027 24.3098 177.856 24.3219 178.635 24.2922C184.809 24.0571 187.868 21.2036 187.868 17.9716C187.868 15.0116 185.308 11.4516 178.908 11.4516C171.508 11.4516 167.628 16.2116 167.628 22.0516ZM185.187 24.819C185.463 24.6824 185.729 24.5368 185.984 24.3827C188.444 22.8939 189.868 20.589 189.868 17.9716C189.868 15.9159 188.98 13.7369 187.105 12.0964C185.224 10.4503 182.48 9.45155 178.908 9.45155C174.764 9.45155 171.4 10.7955 169.07 13.1566C166.751 15.5061 165.628 18.6886 165.628 22.0516C165.628 25.4575 166.772 28.6517 169.059 31.0052C171.358 33.3722 174.661 34.7316 178.668 34.7316C181.166 34.7316 183.659 34.2199 185.773 32.8187C187.922 31.3946 189.489 29.1779 190.318 26.1378L191.595 21.4554L187.389 23.8787C186.627 24.3179 185.892 24.6172 185.187 24.819ZM175.468 21.4116C175.428 21.0916 175.428 20.7316 175.428 20.4116C175.428 20.1688 175.433 19.9295 175.444 19.6943C175.449 19.5993 175.454 19.505 175.46 19.4114C175.64 16.6454 176.586 14.5316 178.268 14.5316C179.588 14.5316 180.228 15.8516 180.228 17.2916C180.228 19.1747 179.178 20.5218 177.446 21.0991C177.319 21.1412 177.189 21.1793 177.055 21.2132C176.57 21.3361 176.039 21.4036 175.468 21.4116ZM177.522 18.8457C177.56 18.818 177.595 18.79 177.628 18.7617C177.979 18.4616 178.228 18.0145 178.228 17.2916C178.228 17.0762 178.204 16.8861 178.166 16.7326C178.164 16.7265 178.163 16.7205 178.161 16.7147C178.105 16.7996 178.039 16.9155 177.97 17.0712C177.775 17.5075 177.616 18.1099 177.522 18.8457Z" fill="#232845"/>
<path d="M178.668 32.7316C171.588 32.7316 167.628 27.9716 167.628 22.0516C167.628 16.2116 171.508 11.4516 178.908 11.4516C185.308 11.4516 187.868 15.0116 187.868 17.9716C187.868 21.6116 183.988 24.7716 176.148 24.2516C177.028 26.0916 178.868 27.2116 182.108 27.2116C183.868 27.2116 186.028 26.9716 188.388 25.6116C186.948 30.8916 183.148 32.7316 178.668 32.7316ZM175.428 20.4116C175.428 20.7316 175.428 21.0916 175.468 21.4116C178.348 21.3716 180.228 19.8116 180.228 17.2916C180.228 15.8516 179.588 14.5316 178.268 14.5316C176.388 14.5316 175.428 17.1716 175.428 20.4116Z" fill="#FDED52"/>
</svg>
