<svg width="74" height="65" viewBox="0 0 74 65" fill="none" xmlns="http://www.w3.org/2000/svg">
<g clip-path="url(#clip0_1031_42874)">
<path d="M20.1543 41.5134C18.397 39.928 17.708 38.1032 16.9132 35.9918C16.1658 34.011 15.896 32.4075 15.8194 31.9395C15.2944 28.6527 15.7283 26.0769 15.9798 24.6439C16.2533 23.1094 16.7783 21.0016 17.8647 18.6362C17.0298 18.8829 15.8194 19.3437 14.5579 20.2289C13.0157 21.3136 12.1553 22.4963 11.5647 23.327C10.7517 24.4698 9.30061 26.5123 8.87404 29.5851C8.44018 32.6977 9.29696 35.1864 9.80009 36.3764L9.08185 36.5686C8.40008 35.2844 7.6381 33.543 7.12038 31.3917C6.47871 28.718 6.45684 26.3998 6.56986 24.7564C5.72766 25.5146 4.57193 26.7082 3.5365 28.3915C1.65889 31.4425 1.27972 34.3012 1.08284 35.9338C0.937006 37.1346 0.663567 39.5507 1.32347 42.5727C2.2167 46.6649 4.26932 49.3568 5.30839 50.6882C8.20685 54.4031 11.6376 56.3766 13.7121 57.3489C12.5272 57.2002 11.0652 56.9099 9.46103 56.3404C7.27351 55.5604 5.58912 54.5301 4.4188 53.6739C4.57557 54.2652 4.85266 55.1976 5.3412 56.2787C5.99017 57.7153 7.58341 61.2525 11.3022 63.1172C11.9475 63.44 12.9975 63.8863 14.423 64.1257H33.6659C33.9357 63.382 34.293 62.3299 34.6357 61.0493C35.3649 58.3212 36.0867 55.6112 35.8352 52.0922C35.7039 50.2782 35.2227 47.0059 33.3049 43.545C32.6742 42.4095 32.0362 41.517 31.5403 40.8858C31.3143 41.3646 30.9169 42.0431 30.2242 42.638C27.9419 44.597 24.6497 43.7735 23.9861 43.6066C21.9481 43.0951 20.6538 41.956 20.158 41.5098L20.1543 41.5134Z" fill="#FE755E"/>
<path d="M53.0873 50.7245C53.3462 48.8997 53.6123 46.8644 52.8759 44.4265C52.6243 43.5958 52.3217 42.9391 52.0957 42.4929C52.6899 42.0757 53.5103 41.4263 54.3379 40.4976C56.4853 38.0923 57.1415 35.5311 57.5936 33.6772C58.8332 28.5983 57.8342 24.4081 57.4186 22.7574C56.9519 20.9 56.3467 19.4235 55.8801 18.4222C56.6566 18.6761 57.7832 19.1224 58.9936 19.9277C61.9796 21.9158 63.2739 24.6439 63.8754 25.9499C64.4624 27.2269 65.2864 29.0771 65.2718 31.6348C65.2572 33.9239 64.5791 35.7016 64.1015 36.7101C64.528 36.3473 65.115 35.7814 65.651 34.9724C65.9827 34.4717 66.6463 33.3471 67.1166 30.3215C67.3171 29.0336 67.4994 27.2777 67.4557 25.1627C67.8239 25.3441 68.3635 25.6452 68.9322 26.1096C70.9739 27.7748 71.5755 30.0494 72.2791 32.8501C72.7166 34.5951 73.2198 36.6738 73.0666 39.4927C72.9828 41.0526 72.6765 43.2511 71.7104 45.6745C69.9822 50.0062 67.1348 52.5674 65.4978 54.0077C63.8536 55.4515 62.315 56.4347 61.2322 57.055C62.3186 56.9172 63.6749 56.6451 65.1661 56.0973C67.1421 55.3717 68.6515 54.4176 69.6942 53.6376C69.5229 54.1999 69.2458 54.9944 68.8265 55.9123C68.1374 57.4106 66.9234 60.0553 64.2218 61.9925C63.3577 62.6129 61.8082 63.5452 59.5296 64.0096H45.1576C45.5915 63.6722 46.1894 63.1861 46.8602 62.5585C47.9795 61.5064 49.7733 59.8013 51.1733 57.1167C52.5259 54.5301 52.8649 52.2772 53.0873 50.7172V50.7245Z" fill="#FE755E"/>
<path d="M35.4049 49.7776C34.8836 47.2454 34.0669 45.1485 33.2976 43.5486L31.533 40.8894C31.7992 40.2509 32.1528 39.2786 32.3752 38.0561C32.6778 36.4054 32.6924 34.6132 31.6862 29.9442C31.3143 28.2137 30.7747 25.9717 30.0018 23.3669C30.7638 24.0853 31.6606 24.8398 32.7034 25.5763C34.7414 27.0202 36.7138 27.9525 38.3362 28.5693C40.644 29.9406 43.918 31.37 46.7982 34.2904C49.2373 36.7646 50.4113 38.836 51.6035 41.3792C54.1009 46.6903 52.9707 51.8818 52.5077 53.5941C52.0629 55.2448 50.8342 59.5692 46.8529 62.5658C45.9305 63.2587 45.0738 63.723 44.454 64.0169H33.5747C34.4716 62.417 35.3502 60.3346 35.7659 57.8205C36.331 54.4176 35.8023 51.7221 35.4013 49.7776H35.4049Z" fill="#FDED52"/>
<path d="M42.6347 30.8802C42.2993 30.1618 40.3706 30.3251 36.9836 28.25C33.345 26.0225 33.1409 26.2801 31.1758 24.4444C28.6929 22.1262 27.9783 19.3037 27.8179 18.5999C27.683 18.0158 27.0997 15.2369 28.2737 12.0045C29.3419 9.06596 31.2669 7.38264 32.8091 6.06936C36.9216 2.56487 41.5118 1.34229 44.3482 0.870667C43.167 1.30238 41.5409 1.98079 39.7217 3.04374C38.0591 4.01238 36.8159 4.74157 35.507 6.14917C33.7935 7.99212 33.0206 9.88222 32.7107 10.7456C32.3096 11.8703 31.6752 13.7168 31.9815 16.1076C32.3643 19.0752 33.9648 21.0705 34.4935 21.709C34.6393 21.8831 35.0622 22.3221 35.9044 23.1928C37.0675 24.3936 37.9753 25.3296 39.1456 26.4215C40.8191 27.9815 41.0779 28.0287 41.7415 28.8957C42.4998 29.8861 42.7988 31.2502 42.6311 30.8874L42.6347 30.8802Z" fill="#FFACE0"/>
<path d="M40.5383 27.7384C40.3378 27.8872 39.3498 26.9403 37.5487 25.2098C36.2799 23.9909 35.4779 23.1021 35.2956 22.9025C33.7133 21.143 32.9221 20.2651 32.47 19.1695C31.9195 17.8308 31.9013 16.6772 31.883 15.6323C31.8757 15.0845 31.883 13.2525 32.6669 11.0431C33.3705 9.06957 34.3586 7.73453 34.7888 7.19398C36.1305 5.50341 37.5268 4.6037 38.6242 3.8999C39.4446 3.37387 40.881 2.46328 42.981 1.86106C43.8925 1.59985 44.6837 1.46562 45.2743 1.39307C45.1758 1.61799 45.0045 1.94813 44.7274 2.30003C44.0894 3.10541 43.3165 3.46456 43.1305 3.55526C41.6467 4.29534 39.4227 7.21575 38.2086 9.42147C37.4867 10.7311 35.9518 13.5209 35.9846 16.9275C36.0466 22.9461 40.9758 27.4083 40.531 27.7421L40.5383 27.7384Z" fill="#D2AAF5"/>
<path d="M72.7969 45.4822C76.3771 35.7922 71.1307 25.8338 67.864 24.038L66.3802 23.2254L66.5114 24.9051C66.6682 26.8859 66.5297 28.8631 66.0994 30.7858C66.0994 30.648 66.0994 30.5174 66.0958 30.3868C66.0557 29.1533 65.5635 24.789 60.9551 20.363C59.7848 19.2348 57.0614 17.7836 56.0259 17.6131L54.3197 17.3265L55.0488 18.8901C55.9239 20.7621 56.54 22.732 56.8827 24.7455C57.9728 31.1885 56.3577 35.6181 54.8119 38.1975C54.2759 39.0899 53.5832 40.2363 52.5806 41.1723C51.3228 38.1612 49.3431 35.5637 47.1483 33.4414C46.8931 33.1657 46.4811 32.7485 45.9597 32.2224C44.3847 30.6334 41.7524 27.9742 40.7206 26.3635C38.256 22.5107 37.0055 19.9204 37.0128 16.4522C37.0237 11.7034 40.2138 8.10094 41.931 6.1673C43.455 4.4477 45.2488 2.97843 47.2613 1.79213L50.3056 0.00360107L46.7691 0.105181C43.7467 0.192249 40.5711 0.994001 37.3373 2.48504C35.3904 3.38475 32.5138 4.93021 29.9909 7.99573C28.6674 9.60286 26.8518 11.805 26.6039 15.3784C26.4252 17.9324 26.9283 20.2687 28.0987 22.3184H28.1023C28.1132 22.3729 28.1315 22.4273 28.1533 22.4817C28.219 22.6449 28.2955 22.8336 28.3794 23.044C29.557 25.9499 32.6888 33.67 31.3325 39.1988C31.2195 39.6595 31.0919 40.0114 30.9169 40.3452C30.9096 40.3561 30.9096 40.3706 30.9023 40.3851C30.4758 41.1868 29.7356 41.8181 28.4268 42.4892C26.6221 43.4143 24.6606 42.9355 23.6507 42.5654C21.2773 41.6984 20.0632 39.674 19.1772 38.1939C17.6277 35.6108 16.0126 31.1849 17.1064 24.7418C17.4491 22.7284 18.0652 20.7585 18.9366 18.8865L19.6658 17.3229L17.9595 17.6095C16.9277 17.7836 14.2043 19.2348 13.0303 20.3594C8.42195 24.789 7.93341 29.1533 7.88966 30.3831C7.88601 30.5137 7.88236 30.648 7.88601 30.7822C7.4558 28.8594 7.31726 26.8786 7.47038 24.8978L7.60163 23.2181L6.11777 24.0308C2.85473 25.8229 -2.39531 35.785 1.18492 45.4749C2.78181 49.7993 6.21985 53.2313 6.60631 53.6086C7.02559 54.0185 7.45944 54.4103 7.90424 54.784C6.81777 54.2616 5.7787 53.6376 4.80891 52.9156L2.57764 51.2613L3.39431 53.9097C4.06515 56.0936 5.7386 60.1641 9.36623 62.9103C10.7407 63.9515 12.1006 64.3796 13.1944 64.7206C13.4314 64.7932 13.6574 64.8657 13.8725 64.9383L14.0183 64.9891H33.6404V64.9818C33.6622 64.9818 33.6841 64.9891 33.7096 64.9891H44.8805H59.9452L60.0911 64.9383C60.3062 64.8621 60.5359 64.7932 60.7692 64.717C61.8629 64.3724 63.2229 63.9479 64.5973 62.9067C68.225 60.1604 69.8948 56.0864 70.5693 53.906L71.3859 51.2577L69.1547 52.912C68.1849 53.6303 67.1458 54.2579 66.0593 54.7803C66.5078 54.4031 66.938 54.0112 67.3573 53.6049C67.7437 53.2276 71.1854 49.7884 72.7787 45.4713L72.7969 45.4822ZM51.629 44.0093C52.8905 48.7545 51.8368 53.634 50.5499 56.373C49.8899 57.7769 48.9858 59.0322 48.9785 59.0431C48.4899 59.7106 47.9868 60.2838 47.4837 60.7953C51.1842 53.5578 46.9259 45.2065 43.2472 40.8748C42.3102 39.7683 41.2894 38.836 40.2102 37.8456C38.9341 36.6774 37.4904 35.3533 35.8498 33.4487C34.2346 31.5731 32.5502 28.7615 31.5586 26.28C31.5258 26.1821 31.4929 26.0841 31.4601 25.9862C33.8336 27.9017 36.3383 28.8812 37.33 29.2222C39.6123 30.0022 42.7951 31.8125 45.6316 34.4753C45.7082 34.5551 45.7738 34.6241 45.8285 34.6821L45.843 34.6712C48.3988 37.1273 50.6446 40.2835 51.6363 44.0093H51.629ZM40.5675 4.96286C38.6935 7.07789 35.2081 11.0141 35.1935 16.445C35.1898 18.9482 35.7367 21.0052 36.8268 23.2472C35.5654 21.9593 34.4898 20.7403 33.7206 19.4343C33.0497 18.2952 32.1055 15.8319 33.2867 12.1242C34.5081 8.29321 37.4211 5.90247 38.6206 5.04993C39.5029 4.42231 40.9722 3.72214 42.3685 3.14531C41.7342 3.71851 41.1326 4.32436 40.5675 4.96286ZM29.8013 21.5421C29.7648 21.4986 29.7284 21.4586 29.6882 21.4224C28.6966 19.6846 28.2737 17.6966 28.4268 15.5017C28.6346 12.5051 30.1695 10.6404 31.4237 9.12036C32.5466 7.75629 33.757 6.72236 34.9128 5.92423C33.644 7.30281 32.3133 9.18566 31.5513 11.5764C30.1549 15.9516 31.3289 18.9518 32.1492 20.3485C33.3633 22.4128 35.157 24.1759 37.2388 26.2184C37.793 26.7625 38.3508 27.3103 38.9123 27.8799C38.5696 27.7348 38.2378 27.6078 37.9206 27.5026C36.98 27.1797 34.5482 26.2292 32.3206 24.3391C31.3143 23.4866 30.6216 22.5942 30.0638 21.8758L29.8013 21.5385V21.5421ZM33.0388 63.1861H14.3392C14.1532 63.1244 13.96 63.0627 13.7595 63.001C12.7496 62.6854 11.6084 62.3263 10.4855 61.4773C8.37456 59.8775 7.00371 57.7516 6.136 55.9159C6.65371 56.1988 7.18236 56.46 7.72195 56.6995C9.62873 57.5411 11.6522 58.0962 13.7376 58.3429L19.6111 59.0394L14.2189 56.616C11.8564 55.5531 9.73081 54.1092 7.90059 52.3207C7.5433 51.9724 4.3714 48.8053 2.91306 44.8546C0.193248 37.4973 3.20108 30.0748 5.6037 26.9802C5.63652 28.4168 5.81516 29.839 6.13235 31.2393C7.0183 35.1392 9.21675 39.0863 10.3907 40.6608L15.3345 47.2707L11.9548 39.7502C10.7918 37.1672 9.64331 32.977 9.72352 30.4448C9.79644 28.2608 11.036 24.8071 14.3064 21.6654C14.7876 21.2047 15.6298 20.6641 16.4246 20.2252C15.9288 21.5965 15.5605 23.0077 15.3163 24.4407C14.1314 31.4279 15.9142 36.282 17.6205 39.1226C18.5903 40.737 20.0522 43.1785 23.0309 44.2669C25.2622 45.0831 27.4789 45.0215 29.2726 44.1C30.3153 43.5631 31.1028 43.008 31.6898 42.384C33.6768 45.591 34.7159 49.2116 34.8471 53.4199C34.9784 57.5774 33.6805 61.51 33.0351 63.1861H33.0388ZM36.6737 53.3619C36.5206 48.5767 35.2081 44.3177 32.769 40.6934C32.9002 40.3706 33.0133 40.0223 33.1081 39.6269C33.6112 37.5808 33.5674 35.3061 33.2503 33.075C33.6513 33.63 34.0596 34.1525 34.4643 34.6277C36.1742 36.6121 37.6617 37.9762 38.9743 39.177C40.0571 40.1674 40.9904 41.0236 41.8545 42.043C42.2847 42.5509 52.2415 54.4974 43.4623 63.1861H34.9747C35.7003 61.1472 36.794 57.3597 36.6664 53.3619H36.6737ZM66.0994 52.3207C64.2692 54.1092 62.14 55.5531 59.7812 56.616L54.3889 59.0394L60.2624 58.3429C62.3479 58.0962 64.3713 57.5411 66.2781 56.6995C66.8177 56.46 67.3463 56.1988 67.864 55.9159C66.9963 57.7479 65.6255 59.8775 63.5145 61.4773C62.3916 62.3263 61.2504 62.6854 60.2405 63.001C60.04 63.0627 59.8468 63.1244 59.6609 63.1861H47.5931C48.5045 62.4061 49.5071 61.4084 50.4587 60.106C50.4988 60.048 51.4686 58.7057 52.2051 57.1421C53.6197 54.1273 54.7827 48.7581 53.3936 43.5449C53.3462 43.3635 53.2915 43.1821 53.2369 43.0008C54.7645 41.8108 55.6869 40.2762 56.3796 39.1226C58.0858 36.282 59.8687 31.4279 58.6838 24.4371C58.4395 23.0041 58.0713 21.5965 57.5754 20.2216C58.3702 20.6605 59.2124 21.2011 59.6937 21.6618C62.964 24.8035 64.2072 28.2572 64.2765 30.4412C64.3604 32.9734 63.2083 37.1599 62.0452 39.7466L58.6655 47.2671L63.6093 40.6572C64.7869 39.0827 66.9817 35.1356 67.8677 31.2357C68.1849 29.839 68.3599 28.4132 68.3963 26.9766C70.799 30.0711 73.8068 37.4937 71.087 44.8509C69.6286 48.798 66.4567 51.9688 66.0994 52.3171V52.3207Z" fill="#232845"/>
</g>
<defs>
<clipPath id="clip0_1031_42874">
<rect width="74" height="65" fill="white"/>
</clipPath>
</defs>
</svg>
