<svg width="32" height="32" viewBox="0 0 32 32" fill="none" xmlns="http://www.w3.org/2000/svg">
<g id="material-symbols:delete-rounded">
<path id="Vector" d="M10.4583 25.3333C9.88533 25.3333 9.39506 25.1304 8.98742 24.7246C8.57978 24.3187 8.37561 23.8303 8.37492 23.2592V9.77774C8.07978 9.77774 7.83256 9.67818 7.63325 9.47907C7.43395 9.27996 7.33395 9.03384 7.33325 8.7407C7.33325 8.44687 7.43325 8.20075 7.63325 8.00233C7.83325 7.80391 8.08047 7.70435 8.37492 7.70366H12.5416C12.5416 7.40984 12.6416 7.16371 12.8416 6.96529C13.0416 6.76687 13.2888 6.66732 13.5833 6.66663H17.7499C18.0451 6.66663 18.2926 6.76618 18.4926 6.96529C18.6926 7.1644 18.7923 7.41053 18.7916 7.70366H22.9582C23.2534 7.70366 23.501 7.80322 23.701 8.00233C23.901 8.20144 24.0006 8.44756 23.9999 8.7407C23.9999 9.03453 23.8999 9.281 23.6999 9.48011C23.4999 9.67922 23.2527 9.77843 22.9582 9.77774V23.2592C22.9582 23.8296 22.7544 24.318 22.3468 24.7246C21.9392 25.1311 21.4485 25.334 20.8749 25.3333H10.4583ZM13.5833 21.1851C13.8784 21.1851 14.126 21.0856 14.326 20.8865C14.526 20.6874 14.6256 20.4412 14.6249 20.1481V12.8888C14.6249 12.595 14.5249 12.3489 14.3249 12.1505C14.1249 11.9521 13.8777 11.8525 13.5833 11.8518C13.2881 11.8518 13.0409 11.9514 12.8416 12.1505C12.6423 12.3496 12.5423 12.5957 12.5416 12.8888V20.1481C12.5416 20.4419 12.6416 20.6884 12.8416 20.8875C13.0416 21.0866 13.2888 21.1858 13.5833 21.1851ZM17.7499 21.1851C18.0451 21.1851 18.2926 21.0856 18.4926 20.8865C18.6926 20.6874 18.7923 20.4412 18.7916 20.1481V12.8888C18.7916 12.595 18.6916 12.3489 18.4916 12.1505C18.2916 11.9521 18.0444 11.8525 17.7499 11.8518C17.4548 11.8518 17.2076 11.9514 17.0082 12.1505C16.8089 12.3496 16.7089 12.5957 16.7082 12.8888V20.1481C16.7082 20.4419 16.8082 20.6884 17.0082 20.8875C17.2082 21.0866 17.4555 21.1858 17.7499 21.1851Z" fill="#232845"/>
</g>
</svg>
