<svg width="40" height="40" viewBox="0 0 40 40" fill="none" xmlns="http://www.w3.org/2000/svg">
<g id="material-symbols:edit-note-rounded">
<path id="Vector" d="M8.33317 23.3333C7.86095 23.3333 7.46539 23.1733 7.1465 22.8533C6.82762 22.5333 6.66762 22.1377 6.6665 21.6666C6.6665 21.1944 6.8265 20.7988 7.1465 20.48C7.4665 20.1611 7.86206 20.0011 8.33317 20H16.6665C17.1387 20 17.5348 20.16 17.8548 20.48C18.1748 20.8 18.3343 21.1955 18.3332 21.6666C18.3332 22.1388 18.1732 22.535 17.8532 22.855C17.5332 23.175 17.1376 23.3344 16.6665 23.3333H8.33317ZM8.33317 16.6666C7.86095 16.6666 7.46539 16.5066 7.1465 16.1866C6.82762 15.8666 6.66762 15.4711 6.6665 15C6.6665 14.5277 6.8265 14.1322 7.1465 13.8133C7.4665 13.4944 7.86206 13.3344 8.33317 13.3333H23.3332C23.8054 13.3333 24.2015 13.4933 24.5215 13.8133C24.8415 14.1333 25.0009 14.5288 24.9998 15C24.9998 15.4722 24.8398 15.8683 24.5198 16.1883C24.1998 16.5083 23.8043 16.6677 23.3332 16.6666H8.33317ZM8.33317 9.99996C7.86095 9.99996 7.46539 9.83996 7.1465 9.51996C6.82762 9.19996 6.66762 8.8044 6.6665 8.33329C6.6665 7.86107 6.8265 7.46552 7.1465 7.14663C7.4665 6.82774 7.86206 6.66774 8.33317 6.66663H23.3332C23.8054 6.66663 24.2015 6.82663 24.5215 7.14663C24.8415 7.46663 25.0009 7.86218 24.9998 8.33329C24.9998 8.80551 24.8398 9.20163 24.5198 9.52163C24.1998 9.84163 23.8043 10.0011 23.3332 9.99996H8.33317ZM21.6665 31.6666V28.9166C21.6665 28.6944 21.7082 28.4794 21.7915 28.2716C21.8748 28.0638 21.9998 27.8761 22.1665 27.7083L30.8748 19.0416C31.1248 18.7916 31.4026 18.6111 31.7082 18.5C32.0137 18.3888 32.3193 18.3333 32.6248 18.3333C32.9582 18.3333 33.2776 18.3961 33.5832 18.5216C33.8887 18.6472 34.1665 18.8344 34.4165 19.0833L35.9582 20.625C36.1804 20.875 36.3543 21.1527 36.4798 21.4583C36.6054 21.7638 36.6676 22.0694 36.6665 22.375C36.6665 22.6805 36.6109 22.9933 36.4998 23.3133C36.3887 23.6333 36.2082 23.9177 35.9582 24.1666L27.2915 32.8333C27.1248 33 26.9376 33.125 26.7298 33.2083C26.5221 33.2916 26.3065 33.3333 26.0832 33.3333H23.3332C22.8609 33.3333 22.4654 33.1738 22.1465 32.855C21.8276 32.5361 21.6676 32.14 21.6665 31.6666ZM32.6248 24L34.1665 22.375L32.6248 20.8333L31.0415 22.4166L32.6248 24ZM24.1665 30.8333H25.7498L30.7915 25.75L30.0415 24.9583L29.2498 24.2083L24.1665 29.25V30.8333ZM24.1665 30.8333V29.25L29.2498 24.2083L30.7915 25.75L25.7498 30.8333H24.1665Z" fill="#232845"/>
</g>
</svg>
