<svg width="42" height="12" viewBox="0 0 42 12" fill="none" xmlns="http://www.w3.org/2000/svg">
<g id="Group 10">
<path id="Ellipse 64" d="M35.7826 10.9955C33.2325 10.9955 31.1652 8.92825 31.1652 6.37813C31.1652 3.82802 33.2325 1.76074 35.7826 1.76074C38.3327 1.76074 40.4 3.82802 40.4 6.37813C40.4 8.92825 38.3327 10.9955 35.7826 10.9955Z" fill="#FDED52" stroke="#4F296B" stroke-width="2"/>
<path id="Ellipse 65" d="M21 10.9955C18.4499 10.9955 16.3826 8.92825 16.3826 6.37813C16.3826 3.82802 18.4499 1.76074 21 1.76074C23.5502 1.76074 25.6174 3.82802 25.6174 6.37813C25.6174 8.92825 23.5502 10.9955 21 10.9955Z" fill="#FDED52" stroke="#4F296B" stroke-width="2"/>
<path id="Ellipse 66" d="M6.21739 10.9955C3.66727 10.9955 1.59999 8.92825 1.59999 6.37813C1.6 3.82802 3.66727 1.76074 6.21739 1.76074C8.7675 1.76074 10.8348 3.82802 10.8348 6.37813C10.8348 8.92825 8.7675 10.9955 6.21739 10.9955Z" fill="#FDED52" stroke="#4F296B" stroke-width="2"/>
</g>
</svg>
