<svg width="37" height="37" viewBox="0 0 37 37" fill="none" xmlns="http://www.w3.org/2000/svg">
<g id="gallery-thumbnail">
<path id="Vector" d="M4.62484 29.2916C3.77692 29.2916 3.05131 28.9899 2.448 28.3866C1.8447 27.7833 1.54253 27.0572 1.5415 26.2083V10.7916C1.5415 9.94367 1.84367 9.21806 2.448 8.61475C3.05234 8.01145 3.77795 7.70928 4.62484 7.70825H20.0415C20.8894 7.70825 21.6155 8.01042 22.2199 8.61475C22.8242 9.21908 23.1259 9.9447 23.1248 10.7916V26.2083C23.1248 27.0562 22.8232 27.7823 22.2199 28.3866C21.6166 28.991 20.8904 29.2926 20.0415 29.2916H4.62484ZM27.7498 16.9583C27.313 16.9583 26.9471 16.8103 26.6522 16.5143C26.3572 16.2183 26.2092 15.8524 26.2082 15.4166V9.24992C26.2082 8.81311 26.3562 8.44722 26.6522 8.15225C26.9482 7.85728 27.3141 7.70928 27.7498 7.70825H33.9165C34.3533 7.70825 34.7197 7.85625 35.0157 8.15225C35.3117 8.44825 35.4592 8.81414 35.4582 9.24992V15.4166C35.4582 15.8534 35.3102 16.2198 35.0142 16.5158C34.7182 16.8118 34.3523 16.9593 33.9165 16.9583H27.7498ZM6.1665 23.1249H18.4998L14.453 17.7291L11.5623 21.5833L9.44255 18.7697L6.1665 23.1249ZM27.7498 29.2916C27.313 29.2916 26.9471 29.1436 26.6522 28.8476C26.3572 28.5516 26.2092 28.1857 26.2082 27.7499V21.5833C26.2082 21.1464 26.3562 20.7806 26.6522 20.4856C26.9482 20.1906 27.3141 20.0426 27.7498 20.0416H33.9165C34.3533 20.0416 34.7197 20.1896 35.0157 20.4856C35.3117 20.7816 35.4592 21.1475 35.4582 21.5833V27.7499C35.4582 28.1867 35.3102 28.5531 35.0142 28.8491C34.7182 29.1451 34.3523 29.2926 33.9165 29.2916H27.7498Z" fill="#232845"/>
</g>
</svg>
