<svg width="36" height="30" viewBox="0 0 36 30" fill="none" xmlns="http://www.w3.org/2000/svg">
<path d="M2.44446 15.0001C2.44446 13.7728 3.43938 12.7778 4.66668 12.7778H31.3333C32.5606 12.7778 33.5556 13.7728 33.5556 15.0001V15.0001C33.5556 16.2274 32.5606 17.2223 31.3333 17.2223H4.66668C3.43938 17.2223 2.44446 16.2274 2.44446 15.0001V15.0001Z" fill="#FDED52"/>
<path fill-rule="evenodd" clip-rule="evenodd" d="M4.66668 10.7778H31.3333C33.6652 10.7778 35.5556 12.6682 35.5556 15.0001C35.5556 17.3319 33.6652 19.2223 31.3333 19.2223H4.66668C2.33481 19.2223 0.444458 17.3319 0.444458 15.0001C0.444458 12.6682 2.33481 10.7778 4.66668 10.7778ZM4.66668 12.7778C3.43938 12.7778 2.44446 13.7728 2.44446 15.0001C2.44446 16.2274 3.43938 17.2223 4.66668 17.2223H31.3333C32.5606 17.2223 33.5556 16.2274 33.5556 15.0001C33.5556 13.7728 32.5606 12.7778 31.3333 12.7778H4.66668Z" fill="#232845"/>
<path d="M2.44446 25.667C2.44446 24.4397 3.43938 23.4448 4.66668 23.4448H31.3333C32.5606 23.4448 33.5556 24.4397 33.5556 25.667C33.5556 26.8943 32.5606 27.8893 31.3333 27.8893H4.66668C3.43938 27.8893 2.44446 26.8943 2.44446 25.667Z" fill="#FDED52"/>
<path fill-rule="evenodd" clip-rule="evenodd" d="M4.66668 21.4448H31.3333C33.6652 21.4448 35.5556 23.3352 35.5556 25.667C35.5556 27.9989 33.6652 29.8893 31.3333 29.8893H4.66668C2.33481 29.8893 0.444458 27.9989 0.444458 25.667C0.444458 23.3352 2.33481 21.4448 4.66668 21.4448ZM4.66668 23.4448C3.43938 23.4448 2.44446 24.4397 2.44446 25.667C2.44446 26.8943 3.43938 27.8893 4.66668 27.8893H31.3333C32.5606 27.8893 33.5556 26.8943 33.5556 25.667C33.5556 24.4397 32.5606 23.4448 31.3333 23.4448H4.66668Z" fill="#232845"/>
<path d="M2.44446 4.33355C2.44446 3.10625 3.43938 2.11133 4.66668 2.11133H31.3333C32.5606 2.11133 33.5556 3.10625 33.5556 4.33355C33.5556 5.56085 32.5606 6.55577 31.3333 6.55577H4.66668C3.43938 6.55577 2.44446 5.56085 2.44446 4.33355Z" fill="#FDED52"/>
<path fill-rule="evenodd" clip-rule="evenodd" d="M4.66668 0.111328H31.3333C33.6652 0.111328 35.5556 2.00168 35.5556 4.33355C35.5556 6.66542 33.6652 8.55577 31.3333 8.55577H4.66668C2.33481 8.55577 0.444458 6.66542 0.444458 4.33355C0.444458 2.00168 2.33481 0.111328 4.66668 0.111328ZM4.66668 2.11133C3.43938 2.11133 2.44446 3.10625 2.44446 4.33355C2.44446 5.56085 3.43938 6.55577 4.66668 6.55577H31.3333C32.5606 6.55577 33.5556 5.56085 33.5556 4.33355C33.5556 3.10625 32.5606 2.11133 31.3333 2.11133H4.66668Z" fill="#232845"/>
</svg>
