<svg width="48" height="48" viewBox="0 0 38 38" fill="none" xmlns="http://www.w3.org/2000/svg">
<g clip-path="url(#clip0_799_41289)">
<path d="M17.0269 12.746L11.3049 18.5C10.9432 18.8638 10.4828 19.0456 9.92377 19.0456C9.36472 19.0456 8.90433 18.8638 8.5426 18.5C8.18087 18.1362 8 17.6733 8 17.1111C8 16.5489 8.18087 16.086 8.5426 15.7222L17.6188 6.59524C18.0135 6.19841 18.4738 6 19 6C19.5262 6 19.9865 6.19841 20.3812 6.59524L29.4574 15.7222C29.8191 16.086 30 16.5489 30 17.1111C30 17.6733 29.8191 18.1362 29.4574 18.5C29.0957 18.8638 28.6353 19.0456 28.0762 19.0456C27.5172 19.0456 27.0568 18.8638 26.6951 18.5L20.9731 12.746V29.0159C20.9731 29.578 20.7837 30.0496 20.4048 30.4305C20.026 30.8115 19.5577 31.0013 19 31C18.441 31 17.9727 30.8095 17.5952 30.4286C17.2176 30.0476 17.0282 29.5767 17.0269 29.0159V12.746Z" fill="#FFFFF3"/>
</g>
<defs>
<clipPath id="clip0_799_41289">
<rect width="38" height="38" fill="white"/>
</clipPath>
</defs>
</svg>
