<svg width="48" height="48" viewBox="0 0 38 38" fill="none" xmlns="http://www.w3.org/2000/svg">
<path d="M6.33325 22.1667C6.33325 19.3958 6.99297 16.9285 8.31242 14.7646C9.63186 12.6007 11.0833 10.7799 12.6666 9.30208C14.2499 7.82431 15.7013 6.69592 17.0208 5.91692L18.9999 4.75V9.975C18.9999 10.9514 19.3298 11.723 19.9895 12.2898C20.6492 12.8567 21.3881 13.1406 22.2062 13.1417C22.6548 13.1417 23.0839 13.0493 23.4934 12.8646C23.903 12.6799 24.2788 12.3764 24.6208 11.9542L25.3333 11.0833C27.2333 12.1917 28.7638 13.7286 29.9249 15.694C31.086 17.6594 31.6666 19.817 31.6666 22.1667C31.6666 24.4889 31.0992 26.6069 29.9645 28.5206C28.8298 30.4343 27.3388 31.9443 25.4916 33.0505C25.9402 32.4172 26.2901 31.7247 26.5413 30.9732C26.7926 30.2216 26.9176 29.4236 26.9166 28.5792C26.9166 27.5236 26.7187 26.5272 26.3228 25.5898C25.927 24.6525 25.3596 23.8149 24.6208 23.0771L18.9999 17.575L13.4187 23.0771C12.6534 23.8424 12.0728 24.6868 11.677 25.6104C11.2812 26.534 11.0833 27.5236 11.0833 28.5792C11.0833 29.4236 11.2089 30.2221 11.4601 30.9747C11.7113 31.7274 12.0607 32.4198 12.5083 33.0521C10.661 31.9437 9.17006 30.4327 8.03533 28.519C6.90061 26.6053 6.33325 24.4878 6.33325 22.1667ZM18.9999 22.0083L22.3645 25.2937C22.8131 25.7424 23.1562 26.2437 23.3937 26.7979C23.6312 27.3521 23.7499 27.9458 23.7499 28.5792C23.7499 29.8722 23.2881 30.9742 22.3645 31.8852C21.4409 32.7961 20.3194 33.2511 18.9999 33.25C17.6805 33.25 16.5589 32.7951 15.6353 31.8852C14.7117 30.9753 14.2499 29.8733 14.2499 28.5792C14.2499 27.9722 14.3687 27.3853 14.6062 26.8185C14.8437 26.2517 15.1867 25.7434 15.6353 25.2937L18.9999 22.0083Z" fill="#FFFFF3"/>
</svg>
