<svg width="48" height="48" viewBox="0 0 38 38" fill="none" xmlns="http://www.w3.org/2000/svg">
<path d="M19.0001 23.6707L23.3938 26.9957C23.7105 27.2068 24.0272 27.2136 24.3438 27.0163C24.6605 26.8189 24.7529 26.5349 24.6209 26.1644L22.9584 20.6623L27.273 17.5748C27.5897 17.3373 27.682 17.0402 27.5501 16.6834C27.4181 16.3266 27.1674 16.1488 26.798 16.1498H21.5334L19.7522 10.3707C19.6202 10.0012 19.3695 9.8165 19.0001 9.8165C18.6306 9.8165 18.3799 10.0012 18.248 10.3707L16.4667 16.1498H11.2022C10.8327 16.1498 10.582 16.3282 10.4501 16.685C10.3181 17.0418 10.4105 17.3384 10.7272 17.5748L15.0417 20.6623L13.3792 26.1644C13.2473 26.5339 13.3397 26.8178 13.6563 27.0163C13.973 27.2147 14.2897 27.2078 14.6063 26.9957L19.0001 23.6707ZM19.0001 34.8332C16.8098 34.8332 14.7515 34.4173 12.8251 33.5855C10.8987 32.7537 9.223 31.6259 7.798 30.2019C6.373 28.7769 5.24514 27.1012 4.41441 25.1748C3.58369 23.2484 3.1678 21.1901 3.16675 18.9998C3.16675 16.8096 3.58264 14.7512 4.41441 12.8248C5.24619 10.8984 6.37405 9.22275 7.798 7.79775C9.223 6.37275 10.8987 5.24489 12.8251 4.41417C14.7515 3.58345 16.8098 3.16756 19.0001 3.1665C21.1904 3.1665 23.2487 3.58239 25.1751 4.41417C27.1015 5.24595 28.7772 6.37381 30.2022 7.79775C31.6272 9.22275 32.7556 10.8984 33.5873 12.8248C34.4191 14.7512 34.8345 16.8096 34.8334 18.9998C34.8334 21.1901 34.4175 23.2484 33.5857 25.1748C32.754 27.1012 31.6261 28.7769 30.2022 30.2019C28.7772 31.6269 27.1015 32.7553 25.1751 33.5871C23.2487 34.4189 21.1904 34.8342 19.0001 34.8332Z" fill="#FFFFF3"/>
</svg>
