<svg width="48" height="48" viewBox="0 0 38 38" fill="none" xmlns="http://www.w3.org/2000/svg">
<path d="M11.1228 18.7228L12.4291 16.0311C12.693 15.4769 13.0825 15.0415 13.5976 14.7248C14.1127 14.4082 14.6732 14.2498 15.2791 14.2498H17.4166V4.74984C17.4166 4.30123 17.5686 3.92545 17.8726 3.6225C18.1766 3.31956 18.5524 3.16756 18.9999 3.1665H27.2333C27.5235 3.1665 27.7478 3.29211 27.9062 3.54334C28.0645 3.79456 28.0777 4.05159 27.9458 4.31442L27.0749 5.97692C27.0222 6.10887 26.9958 6.22761 26.9958 6.33317C26.9958 6.43873 27.0222 6.55748 27.0749 6.68942L27.9458 8.35192C28.0777 8.61581 28.0645 8.87284 27.9062 9.123C27.7478 9.37317 27.5235 9.49878 27.2333 9.49984H20.5833V14.2498H22.602C23.209 14.2498 23.7568 14.4082 24.2455 14.7248C24.7342 15.0415 25.1232 15.4637 25.4124 15.9915L26.7978 18.7623L22.0478 21.929L18.9999 20.3853L15.952 21.929L11.1228 18.7228ZM8.27285 34.8332C7.08535 34.8332 6.18179 34.3386 5.56218 33.3496C4.94257 32.3605 4.89612 31.3377 5.42285 30.2811L9.69785 21.5728L15.7145 25.5707L18.9999 23.9478L22.2853 25.5707L28.2228 21.6519L32.5374 30.2415C33.0652 31.2971 33.0188 32.3262 32.3981 33.329C31.7774 34.3318 30.8739 34.8332 29.6874 34.8332H8.27285Z" fill="#FFFFF3"/>
</svg>
