<svg width="32" height="32" viewBox="0 0 32 32" fill="none" xmlns="http://www.w3.org/2000/svg">
<path d="M16 1C17.8565 1 19.637 1.7375 20.9497 3.05025C22.2625 4.36301 23 6.14348 23 8C23 9.85652 22.2625 11.637 20.9497 12.9497C19.637 14.2625 17.8565 15 16 15C14.1435 15 12.363 14.2625 11.0503 12.9497C9.7375 11.637 9 9.85652 9 8C9 6.14348 9.7375 4.36301 11.0503 3.05025C12.363 1.7375 14.1435 1 16 1ZM16 21C20.2985 21 24.139 21.8725 26.8678 23.2369C29.6561 24.6311 31 26.3726 31 28V31H1V28C1 26.3726 2.34387 24.6311 5.13221 23.2369C7.861 21.8725 11.7015 21 16 21Z" fill="#FDED52" stroke="#232845" stroke-width="2"/>
</svg>
