<svg width="37" height="37" viewBox="0 0 37 37" fill="none" xmlns="http://www.w3.org/2000/svg">
<g id="upload-file-rounded">
<path id="Vector" d="M16.9582 22.8552V27.75C16.9582 28.1868 17.1062 28.5532 17.4022 28.8492C17.6982 29.1452 18.0641 29.2927 18.4998 29.2917C18.9366 29.2917 19.303 29.1437 19.599 28.8477C19.895 28.5517 20.0425 28.1858 20.0415 27.75V22.8552L21.429 24.2427C21.5832 24.3969 21.7569 24.5125 21.9501 24.5896C22.1433 24.6667 22.336 24.6991 22.5282 24.6867C22.7204 24.6734 22.9064 24.6282 23.0863 24.5511C23.2662 24.474 23.4332 24.3584 23.5873 24.2042C23.87 23.8959 24.018 23.5361 24.0313 23.125C24.0447 22.7139 23.8967 22.3542 23.5873 22.0459L19.579 18.0375C19.4248 17.8834 19.2578 17.7744 19.078 17.7107C18.8981 17.647 18.7054 17.6146 18.4998 17.6136C18.2943 17.6136 18.1016 17.646 17.9217 17.7107C17.7419 17.7755 17.5748 17.8844 17.4207 18.0375L13.4123 22.0459C13.104 22.3542 12.9565 22.7139 12.9699 23.125C12.9832 23.5361 13.1436 23.8959 13.4509 24.2042C13.7592 24.4868 14.1189 24.6348 14.53 24.6482C14.9412 24.6616 15.3009 24.5136 15.6092 24.2042L16.9582 22.8552ZM9.24984 33.9167C8.40192 33.9167 7.67631 33.6151 7.073 33.0117C6.4697 32.4084 6.16753 31.6823 6.1665 30.8334V6.16671C6.1665 5.31879 6.46867 4.59318 7.073 3.98987C7.67734 3.38657 8.40295 3.0844 9.24984 3.08337H20.3113C20.7224 3.08337 21.1145 3.16046 21.4876 3.31462C21.8607 3.46879 22.188 3.68719 22.4696 3.96983L29.9467 11.4469C30.2294 11.7296 30.4478 12.0574 30.6019 12.4305C30.7561 12.8036 30.8332 13.1952 30.8332 13.6052V30.8334C30.8332 31.6813 30.5315 32.4074 29.9282 33.0117C29.3249 33.6161 28.5988 33.9177 27.7498 33.9167H9.24984ZM20.0415 12.3334C20.0415 12.7702 20.1895 13.1366 20.4855 13.4326C20.7815 13.7286 21.1474 13.8761 21.5832 13.875H27.7498L20.0415 6.16671V12.3334Z" fill="#232845"/>
</g>
</svg>
