<svg width="69" height="87" viewBox="0 0 69 87" fill="none" xmlns="http://www.w3.org/2000/svg">
<path id="Vector" d="M30.1875 73.95H38.8125V55.7887L45.7125 62.7487L51.75 56.55L34.5 39.15L17.25 56.55L23.3953 62.64L30.1875 55.7887V73.95ZM8.625 87C6.25313 87 4.22266 86.1481 2.53359 84.4444C0.844531 82.7406 0 80.6925 0 78.3V8.7C0 6.3075 0.844531 4.25938 2.53359 2.55562C4.22266 0.851875 6.25313 0 8.625 0H43.125L69 26.1V78.3C69 80.6925 68.1555 82.7406 66.4664 84.4444C64.7773 86.1481 62.7469 87 60.375 87H8.625ZM38.8125 30.45V8.7H8.625V78.3H60.375V30.45H38.8125Z" fill="#FE755E"/>
</svg>
